# 3ds Max Wavefront OBJ Exporter v0.99 - (c)2007 guruware
# File Created: 26.03.2023 21:46:13

mtllib Cua.mtl

#
# object group
#

v  1.1588 -0.0834 1.1332
v  1.0849 0.0021 -0.0830
v  1.0849 0.0021 1.0830
v  1.1588 -0.0834 -0.1332
v  -0.1588 -0.0834 -0.1332
v  -0.0849 0.0021 1.0830
v  -0.0849 0.0021 -0.0830
v  -0.1588 -0.0834 1.1332
# 8 vertices

vn 0.5117 0.7189 0.4706
vn 0.3219 0.8543 -0.4082
vn 0.4386 0.7059 0.5561
vn 0.5117 0.7189 -0.4706
vn -0.5117 0.7188 -0.4706
vn -0.4387 0.7059 0.5561
vn -0.3219 0.8543 -0.4081
vn -0.5117 0.7188 0.4706
vn 0.0000 1.0000 -0.0000
vn 0.0000 -1.0000 -0.0000
# 10 vertex normals

vt 0.9183 0.0889 0.0000
vt 0.8714 0.8780 0.0000
vt 0.8714 0.1214 0.0000
vt 0.9183 0.9105 0.0000
vt 0.0818 0.9105 0.0000
vt 0.1287 0.1214 0.0000
vt 0.1287 0.8780 0.0000
vt 0.0818 0.0889 0.0000
vt 0.1287 0.1188 0.0000
vt 0.8714 0.1188 0.0000
vt 0.0078 0.7547 0.0000
vt 0.0674 0.6034 0.0000
vt 0.0078 0.6034 0.0000
vt 0.0674 0.7547 0.0000
# 14 texture coords

o group
g group
usemtl Material__26
s 1
f 1/1/1 2/2/2 3/3/3 
f 2/2/2 1/1/1 4/4/4 
f 5/5/5 6/6/6 7/7/7 
f 6/6/6 5/5/5 8/8/8 
f 4/4/4 7/7/7 2/2/2 
f 7/7/7 4/4/4 5/5/5 
f 6/6/6 1/1/1 3/3/3 
f 1/1/1 6/6/6 8/8/8 
f 2/2/2 6/9/9 3/10/9 
f 6/9/9 2/2/2 7/7/7 
f 5/11/10 1/12/10 8/13/10 
f 1/12/10 5/11/10 4/14/10 
# 12 faces

#
# object group00000
#

v  1.0602 -0.0431 1.0576
v  1.0602 0.0215 0.9999
v  1.0602 0.0215 1.0576
v  1.0602 -0.0431 0.9999
v  1.0011 -0.0431 0.9999
v  1.0011 0.0215 1.0576
v  1.0011 0.0215 0.9999
v  1.0011 -0.0431 1.0576
# 8 vertices

vn 1.0000 0.0000 -0.0000
vn -1.0000 0.0000 -0.0000
vn 0.0000 0.0000 -1.0000
vn 0.0000 -0.7071 -0.7071
vn 0.0000 0.0000 1.0000
vn 0.0000 -0.7071 0.7071
vn 0.0000 1.0000 -0.0000
vn 0.0000 -1.0000 -0.0000
# 8 vertex normals

vt 0.3051 0.0304 0.0000
vt 0.2754 0.0577 0.0000
vt 0.2754 0.0304 0.0000
vt 0.3051 0.0577 0.0000
vt 0.1467 0.1701 0.0000
vt 0.1789 0.1380 0.0000
vt 0.1789 0.1701 0.0000
vt 0.1467 0.1380 0.0000
# 8 texture coords

o group00000
g group00000
usemtl ac3dmat1
s 1
f 9/15/11 10/16/11 11/17/11 
f 10/16/11 9/15/11 12/18/11 
f 13/15/12 14/16/12 15/17/12 
f 14/16/12 13/15/12 16/18/12 
f 13/18/13 10/17/13 12/15/14 
f 10/17/13 13/18/13 15/16/13 
f 14/17/15 9/18/16 11/16/15 
f 9/18/16 14/17/15 16/15/15 
f 10/19/17 14/20/17 11/21/17 
f 14/20/17 10/19/17 15/22/17 
f 13/17/18 9/18/16 16/16/18 
f 9/18/16 13/17/18 12/15/14 
# 12 faces

#
# object group00001
#

v  1.0011 -0.0431 -0.0574
v  1.0602 -0.0431 0.0004
v  1.0011 -0.0431 0.0004
v  1.0602 -0.0431 -0.0574
v  1.0602 0.0215 -0.0574
v  1.0011 0.0215 0.0004
v  1.0602 0.0215 0.0004
v  1.0011 0.0215 -0.0574
# 8 vertices

vn 0.0000 -1.0000 -0.0000
vn 0.0000 -0.7071 0.7071
vn 0.0000 -0.7071 -0.7071
vn 0.0000 1.0000 -0.0000
vn 0.0000 0.0000 1.0000
vn 0.0000 0.0000 -1.0000
vn -1.0000 0.0000 -0.0000
vn 1.0000 0.0000 -0.0000
# 8 vertex normals

vt 0.2754 0.0304 0.0000
vt 0.3051 0.0577 0.0000
vt 0.2754 0.0577 0.0000
vt 0.3051 0.0304 0.0000
vt 0.1467 0.1701 0.0000
vt 0.1789 0.1380 0.0000
vt 0.1789 0.1701 0.0000
vt 0.1467 0.1380 0.0000
# 8 texture coords

o group00001
g group00001
usemtl ac3dmat1
s 1
f 17/23/19 18/24/20 19/25/19 
f 18/24/20 17/23/19 20/26/21 
f 21/27/22 22/28/22 23/29/22 
f 22/28/22 21/27/22 24/30/22 
f 22/23/23 18/24/20 23/25/23 
f 18/24/20 22/23/23 19/26/23 
f 17/24/24 21/23/24 20/26/21 
f 21/23/24 17/24/24 24/25/24 
f 17/26/25 22/25/25 24/23/25 
f 22/25/25 17/26/25 19/24/25 
f 18/26/26 21/25/26 23/23/26 
f 21/25/26 18/26/26 20/24/26 
# 12 faces

#
# object group00002
#

v  0.0000 -0.0431 0.0004
v  0.0000 0.0215 -0.0574
v  0.0000 0.0215 0.0004
v  0.0000 -0.0431 -0.0574
v  -0.0591 -0.0431 -0.0574
v  -0.0591 0.0215 0.0004
v  -0.0591 0.0215 -0.0574
v  -0.0591 -0.0431 0.0004
# 8 vertices

vn 1.0000 0.0000 -0.0000
vn -1.0000 0.0000 -0.0000
vn 0.0000 0.0000 -1.0000
vn 0.0000 -0.7071 -0.7071
vn 0.0000 0.0000 1.0000
vn 0.0000 -0.7071 0.7071
vn 0.0000 1.0000 -0.0000
vn 0.0000 -1.0000 -0.0000
# 8 vertex normals

vt 0.3051 0.0304 0.0000
vt 0.2754 0.0577 0.0000
vt 0.2754 0.0304 0.0000
vt 0.3051 0.0577 0.0000
vt 0.1467 0.1701 0.0000
vt 0.1789 0.1380 0.0000
vt 0.1789 0.1701 0.0000
vt 0.1467 0.1380 0.0000
# 8 texture coords

o group00002
g group00002
usemtl ac3dmat1
s 1
f 25/31/27 26/32/27 27/33/27 
f 26/32/27 25/31/27 28/34/27 
f 29/31/28 30/32/28 31/33/28 
f 30/32/28 29/31/28 32/34/28 
f 29/34/29 26/33/29 28/31/30 
f 26/33/29 29/34/29 31/32/29 
f 30/33/31 25/34/32 27/32/31 
f 25/34/32 30/33/31 32/31/31 
f 26/35/33 30/36/33 27/37/33 
f 30/36/33 26/35/33 31/38/33 
f 29/33/34 25/34/32 32/32/34 
f 25/34/32 29/33/34 28/31/30 
# 12 faces

#
# object group00003
#

v  -0.0065 -0.0296 -0.0049
v  1.0065 0.0176 -0.0049
v  1.0065 -0.0296 -0.0049
v  -0.0065 0.0176 -0.0049
v  1.0543 0.0176 -0.0526
v  -0.0543 -0.0296 -0.0526
v  1.0543 -0.0296 -0.0526
v  -0.0543 0.0176 -0.0526
v  1.0065 -0.0296 1.0049
v  1.0065 0.0176 1.0049
v  1.0543 0.0176 1.0526
v  1.0543 -0.0296 1.0526
v  -0.0065 -0.0296 1.0049
v  -0.0065 0.0176 1.0049
v  -0.0543 -0.0296 1.0526
v  -0.0543 0.0176 1.0526
# 16 vertices

vn 0.0000 -0.0001 -1.0000
vn 0.0000 0.0001 1.0000
vn 1.0000 0.0002 -0.0000
vn -1.0000 0.0000 -0.0000
vn 0.0000 0.0000 1.0000
vn 0.0000 0.0000 -1.0000
vn -1.0000 -0.0001 -0.0000
vn 1.0000 0.0001 -0.0000
vn 0.0000 1.0000 -0.0000
# 9 vertex normals

vt 0.2331 0.0512 0.0000
vt 0.7750 0.0633 0.0000
vt 0.7750 0.0512 0.0000
vt 0.2331 0.0633 0.0000
vt 0.8058 0.0230 0.0000
vt 0.2127 0.0109 0.0000
vt 0.8058 0.0109 0.0000
vt 0.2127 0.0230 0.0000
vt 0.7665 0.9542 0.0000
vt 0.1756 0.9672 0.0000
vt 0.7665 0.9672 0.0000
vt 0.1756 0.9542 0.0000
vt 0.1540 0.9755 0.0000
vt 0.8007 0.9885 0.0000
vt 0.1540 0.9885 0.0000
vt 0.8007 0.9755 0.0000
vt 0.7775 0.0435 0.0000
vt 0.2355 0.0314 0.0000
vt 0.7775 0.0314 0.0000
vt 0.2355 0.0435 0.0000
vt 0.2018 0.0673 0.0000
vt 0.7950 0.0794 0.0000
vt 0.7950 0.0673 0.0000
vt 0.2018 0.0794 0.0000
vt 0.1740 0.9366 0.0000
vt 0.7649 0.9496 0.0000
vt 0.1740 0.9496 0.0000
vt 0.7649 0.9366 0.0000
vt 0.8072 0.9168 0.0000
vt 0.1606 0.9298 0.0000
vt 0.8072 0.9298 0.0000
vt 0.1606 0.9168 0.0000
vt 0.8520 0.8556 0.0000
vt 0.1785 0.8296 0.0000
vt 0.8217 0.8296 0.0000
vt 0.1481 0.8556 0.0000
vt 0.8498 0.1412 0.0000
vt 0.8243 0.8273 0.0000
vt 0.8243 0.1721 0.0000
vt 0.8498 0.8582 0.0000
vt 0.8217 0.1672 0.0000
vt 0.1481 0.1421 0.0000
vt 0.8520 0.1421 0.0000
vt 0.1785 0.1672 0.0000
vt 0.1754 0.8273 0.0000
vt 0.1508 0.1412 0.0000
vt 0.1754 0.1721 0.0000
vt 0.1508 0.8582 0.0000
# 48 texture coords

o group00003
g group00003
usemtl ac3dmat1
s 1
f 33/39/35 34/40/35 35/41/35 
f 34/40/35 33/39/35 36/42/35 
f 37/43/36 38/44/36 39/45/36 
f 38/44/36 37/43/36 40/46/36 
f 41/47/37 34/48/37 42/49/37 
f 34/48/37 41/47/37 35/50/37 
f 39/51/38 43/52/38 37/53/38 
f 43/52/38 39/51/38 44/54/38 
f 42/55/39 45/56/39 41/57/39 
f 45/56/39 42/55/39 46/58/39 
f 47/59/40 43/60/40 44/61/40 
f 43/60/40 47/59/40 48/62/40 
f 33/63/41 46/64/41 36/65/41 
f 46/64/41 33/63/41 45/66/41 
f 47/67/42 40/68/42 48/69/42 
f 40/68/42 47/67/42 38/70/42 
f 37/71/43 36/72/43 34/73/43 
f 36/72/43 37/71/43 40/74/43 
f 43/75/43 34/76/43 42/77/43 
f 34/76/43 43/75/43 37/78/43 
f 42/79/43 48/80/43 43/81/43 
f 48/80/43 42/79/43 46/82/43 
f 36/83/43 48/84/43 46/85/43 
f 48/84/43 36/83/43 40/86/43 
# 24 faces

#
# object group00004
#

v  -0.0591 -0.0431 0.9999
v  0.0000 -0.0431 1.0576
v  -0.0591 -0.0431 1.0576
v  0.0000 -0.0431 0.9999
v  0.0000 0.0215 0.9999
v  -0.0591 0.0215 1.0576
v  0.0000 0.0215 1.0576
v  -0.0591 0.0215 0.9999
# 8 vertices

vn 0.0000 -1.0000 -0.0000
vn 0.0000 -0.7071 0.7071
vn 0.0000 -0.7071 -0.7071
vn 0.0000 1.0000 -0.0000
vn 0.0000 0.0000 1.0000
vn 0.0000 0.0000 -1.0000
vn -1.0000 0.0000 -0.0000
vn 1.0000 0.0000 -0.0000
# 8 vertex normals

vt 0.2754 0.0304 0.0000
vt 0.3051 0.0577 0.0000
vt 0.2754 0.0577 0.0000
vt 0.3051 0.0304 0.0000
vt 0.1467 0.1701 0.0000
vt 0.1789 0.1380 0.0000
vt 0.1789 0.1701 0.0000
vt 0.1467 0.1380 0.0000
# 8 texture coords

o group00004
g group00004
usemtl ac3dmat1
s 1
f 49/87/44 50/88/45 51/89/44 
f 50/88/45 49/87/44 52/90/46 
f 53/91/47 54/92/47 55/93/47 
f 54/92/47 53/91/47 56/94/47 
f 54/87/48 50/88/45 55/89/48 
f 50/88/45 54/87/48 51/90/48 
f 49/88/49 53/87/49 52/90/46 
f 53/87/49 49/88/49 56/89/49 
f 49/90/50 54/89/50 56/87/50 
f 54/89/50 49/90/50 51/88/50 
f 50/90/51 53/89/51 55/87/51 
f 53/89/51 50/90/51 52/88/51 
# 12 faces

